<svg xmlns="http://www.w3.org/2000/svg" width="152" height="73"><defs><linearGradient id="c" x1="76" x2="76" y1="50" y2="0" gradientUnits="userSpaceOnUse"><stop offset="0" stop-color="#10cb71"/><stop offset="1" stop-color="#12dc7b"/></linearGradient><filter id="a" width="178" height="110" x="-13" y="-24" filterUnits="userSpaceOnUse"><feOffset dy="12" in="SourceGraphic" result="FeOffset1023Out"/><feGaussianBlur in="FeOffset1023Out" result="FeGaussianBlur1024Out" stdDeviation="5.6 5.6"/></filter><mask id="b" width="2" height="2" x="-1" y="-1"><path fill="#fff" d="M11 0h130v50H11z"/><path d="M36 0h80c13.807 0 25 11.193 25 25s-11.193 25-25 25H36c-13.807 0-25-11.193-25-25S22.193 0 36 0z"/></mask></defs><g filter="url(#a)"><path fill="none" d="M36 0h80c13.807 0 25 11.193 25 25s-11.193 25-25 25H36c-13.807 0-25-11.193-25-25S22.193 0 36 0z" mask="url(&quot;#b&quot;)"/><path fill="#00ce6b" fill-opacity=".15" d="M36 0h80c13.807 0 25 11.193 25 25s-11.193 25-25 25H36c-13.807 0-25-11.193-25-25S22.193 0 36 0z"/></g><path fill="#12dc7b" d="M36 0h80c13.807 0 25 11.193 25 25s-11.193 25-25 25H36c-13.807 0-25-11.193-25-25S22.193 0 36 0z"/><path fill="url(#c)" d="M36 0h80c13.807 0 25 11.193 25 25s-11.193 25-25 25H36c-13.807 0-25-11.193-25-25S22.193 0 36 0z"/></svg>