<svg xmlns="http://www.w3.org/2000/svg" width="152" height="73" viewBox="0 0 152 73"><defs><mask id="hdlgb" width="2" height="2" x="-1" y="-1"><path fill="#fff" d="M11 0h130v50H11z"/><path d="M36 0h80c13.807 0 25 11.193 25 25s-11.193 25-25 25H36c-13.807 0-25-11.193-25-25S22.193 0 36 0z"/></mask><filter id="hdlga" width="178" height="110" x="-13" y="-24" filterUnits="userSpaceOnUse"><feOffset dy="12" in="SourceGraphic" result="FeOffset1023Out"/><feGaussianBlur in="FeOffset1023Out" result="FeGaussianBlur1024Out" stdDeviation="5.6 5.6"/></filter><linearGradient id="hdlgc" x1="76" x2="76" y1="50" y2="0" gradientUnits="userSpaceOnUse"><stop offset="0" stop-color="#10cb71"/><stop offset="1" stop-color="#12dc7b"/></linearGradient></defs><g><g><g filter="url(#hdlga)"><path fill="none" d="M36 0h80c13.807 0 25 11.193 25 25s-11.193 25-25 25H36c-13.807 0-25-11.193-25-25S22.193 0 36 0z" mask="url(&quot;#hdlgb&quot;)"/><path fill="#00ce6b" fill-opacity=".15" d="M36 0h80c13.807 0 25 11.193 25 25s-11.193 25-25 25H36c-13.807 0-25-11.193-25-25S22.193 0 36 0z"/></g><path fill="#12dc7b" d="M36 0h80c13.807 0 25 11.193 25 25s-11.193 25-25 25H36c-13.807 0-25-11.193-25-25S22.193 0 36 0z"/><path fill="url(#hdlgc)" d="M36 0h80c13.807 0 25 11.193 25 25s-11.193 25-25 25H36c-13.807 0-25-11.193-25-25S22.193 0 36 0z"/></g></g></svg>